<svg width="50" height="50" viewBox="0 0 50 50" fill="none" xmlns="http://www.w3.org/2000/svg">
    <circle cx="25" cy="25" r="20" fill="#E86A33"/>
    <path d="M25 5C14.5066 5 6 13.5066 6 24C6 34.4934 14.5066 43 25 43C35.4934 43 44 34.4934 44 24C44 13.5066 35.4934 5 25 5ZM25 40C16.1634 40 9 32.8366 9 24C9 15.1634 16.1634 8 25 8C33.8366 8 41 15.1634 41 24C41 32.8366 33.8366 40 25 40Z" fill="#1A5D57"/>
    <path d="M25 11C17.8203 11 12 16.8203 12 24C12 31.1797 17.8203 37 25 37C32.1797 37 38 31.1797 38 24C38 16.8203 32.1797 11 25 11ZM25 34C19.4772 34 15 29.5228 15 24C15 18.4772 19.4772 14 25 14C30.5228 14 35 18.4772 35 24C35 29.5228 30.5228 34 25 34Z" fill="#FDF8F3"/>
</svg>
